<?xml version="1.0" encoding="utf-8"?>
<!-- Generator: Adobe Illustrator 15.0.0, SVG Export Plug-In . SVG Version: 6.00 Build 0)  -->
<!DOCTYPE svg PUBLIC "-//W3C//DTD SVG 1.1//EN" "http://www.w3.org/Graphics/SVG/1.1/DTD/svg11.dtd">
<svg version="1.1" id="Layer_1" xmlns="http://www.w3.org/2000/svg" xmlns:xlink="http://www.w3.org/1999/xlink" x="0px" y="0px"
	 width="300px" height="300px" viewBox="0 0 300 300" enable-background="new 0 0 300 300" xml:space="preserve">
<g id="Layer_5">
	<path d="M147.547,269.508c-65.718,0-119.281-53.555-119.281-119.383c0-31.779,12.42-61.607,35.062-84.226
		C85.94,43.311,115.801,31,147.5,31h4.5v10h-4.5C87.214,41,38.168,89.884,38.168,150.129c0,60.383,49.191,109.443,109.416,109.443
		C207.809,259.572,257,210.607,257,150.5V146h10v4.5C267,216.121,213.307,269.508,147.547,269.508z"/>
</g>
<g transform="translate(-20,-20)">
	<path d="M170.855,183.692c2.197-2.867,4.053-6.066,5.358-9.371l7.731,1.28c0.979-2.532,1.628-5.176,2.055-7.817l-7.516-2.599
		c0.531-3.631,0.517-7.151-0.058-10.777l7.488-2.896c-0.455-2.636-1.13-5.272-2.139-7.793l-7.826,1.47
		c-1.341-3.292-3.232-6.472-5.454-9.318l5.153-6.073c-0.778-0.986-1.773-1.969-2.774-2.953c-0.997-0.986-1.996-1.971-2.995-2.954
		l-6.041,5.198c-2.879-2.184-6.09-4.036-9.407-5.339l1.284-7.701c-2.542-0.979-5.196-1.625-7.846-2.049l-2.721,7.381
		c-3.643-0.532-7.286-0.624-10.923-0.055l-2.687-7.241c-2.646,0.454-5.292,1.126-7.823,2.127l1.364,7.691
		c-3.302,1.336-6.494,3.222-9.461,5.546l-5.985-5.025c-0.989,0.775-1.976,1.768-2.963,2.763c-0.988,0.996-1.975,1.989-2.523,2.984
		l5.107,5.909c-2.303,2.98-4.16,6.18-5.468,9.485l-7.731-1.278c-0.981,2.532-1.628,5.175-2.056,7.814l7.297,2.602
		c-0.312,3.629-0.404,7.258,0.169,10.883l-7.38,2.789c0.455,2.634,1.133,5.271,2.137,7.796l7.717-1.363
		c1.345,3.293,3.123,6.363,5.458,9.319l-5.153,6.074c0.776,0.985,1.777,1.969,2.775,2.955c0.999,0.98,1.993,1.967,3.102,2.841
		l6.042-5.2c2.879,2.183,6.09,4.037,9.409,5.339l-1.174,7.814c2.545,0.978,5.194,1.622,7.847,2.05l2.606-7.488
		c3.535,0.42,7.178,0.512,10.815-0.058l2.797,7.352c2.646-0.455,5.292-1.127,7.824-2.131l-1.479-7.799
		c3.306-1.337,6.386-3.107,9.352-5.436l6.096,5.135c0.991-0.771,1.979-1.771,2.968-2.767c0.989-0.991,1.976-1.984,2.741-2.981
		L170.855,183.692z M156.583,176.401c-9.111,9.176-23.898,9.252-33.102,0.176c-9.206-9.078-9.284-23.812-0.172-32.983
		c9.108-9.17,23.894-9.248,33.102-0.168C165.616,152.498,165.69,167.231,156.583,176.401z"/>
</g>
<g transform="translate(20,20) rotate(15 50 50)">
	<path d="M241.384,86.437c0.453-3.527,0.459-7.169-0.057-10.63l7.229-2.711c-0.413-2.645-1.165-5.216-2.104-7.681l-7.697,1.478
		c-1.338-3.358-3.087-6.353-5.366-9.164l4.958-6.153c-1.69-2.027-3.564-3.942-5.666-5.602l-5.952,5.104
		c-2.77-2.149-5.956-3.928-9.254-5.268l1.402-7.716c-1.15-0.46-2.49-0.805-3.826-1.155c-1.339-0.349-2.676-0.696-4.013-1.046
		l-2.592,7.407c-3.533-0.447-7.185-0.452-10.66,0.069l-2.703-7.205c-2.657,0.418-5.237,1.173-7.708,2.11l1.324,7.634
		c-3.374,1.34-6.524,3.053-9.349,5.327l-5.865-4.856c-2.034,1.685-3.955,3.562-5.626,5.664l4.96,5.887
		c-2.159,2.765-3.951,5.941-5.334,9.384l-7.587-1.345c-0.459,1.146-0.814,2.481-1.163,3.816c-0.355,1.336-0.704,2.668-0.682,3.786
		l7.274,2.532c-0.493,3.672-0.501,7.316,0.015,10.777l-7.226,2.71c0.415,2.643,1.166,5.217,2.104,7.68l7.508-1.37
		c1.526,3.253,3.237,6.391,5.512,9.205l-4.916,6.005c1.689,2.024,3.567,3.941,5.671,5.6l5.916-4.954
		c2.769,2.149,5.803,3.889,9.251,5.263l-1.403,7.719c1.151,0.458,2.49,0.808,3.826,1.156c1.338,0.35,2.675,0.696,4.051,0.901
		l2.589-7.408c3.539,0.446,7.188,0.45,10.663-0.07l2.852,7.241c2.653-0.418,5.235-1.17,7.704-2.108l-1.468-7.676
		c3.221-1.379,6.375-3.089,9.195-5.365l6.014,4.898c2.036-1.689,3.962-3.564,5.626-5.667l-5.111-5.928
		c2.161-2.764,3.915-5.792,5.297-9.237l7.733,1.388c0.461-1.146,0.814-2.485,1.165-3.815c0.352-1.336,0.706-2.669,0.871-3.892
		L241.384,86.437z M225.607,87.235c-3.249,12.305-15.825,19.643-28.159,16.423c-12.334-3.218-19.669-15.75-16.425-28.056
		c3.25-12.307,15.825-19.643,28.16-16.426C221.516,62.397,228.851,74.93,225.607,87.235z"/>
</g>
</svg>
